<svg cache-id="da8452686dc24386b5cc059c55cacbb8" id="eAw5TVeJ3WL1" xmlns="http://www.w3.org/2000/svg" xmlns:xlink="http://www.w3.org/1999/xlink" viewBox="0 0 300 300" shape-rendering="geometricPrecision" text-rendering="geometricPrecision"><g transform="matrix(1.384702 0 0 0.644506-60.930791 8.755788)"><ellipse rx="44.766575" ry="43.167768" transform="translate(122.820294 125.026598)" fill="#198754" stroke-width="0"/><ellipse rx="32.295885" ry="34.214454" transform="translate(117.704115 148.369219)" fill="#198754" stroke-width="0"/><ellipse rx="31.976125" ry="30.69708" transform="matrix(1.03 0 0 1.072915 172.383288 135.259008)" fill="#198754" stroke-width="0"/><ellipse rx="42.208485" ry="13.110211" transform="translate(171.424004 161.479429)" fill="#198754" stroke-width="0"/><ellipse rx="46.04562" ry="17.267107" transform="translate(93.40226 157.322533)" fill="#198754" stroke-width="0"/><ellipse rx="20.144958" ry="12.486701" transform="translate(84.129184 137.513299)" fill="#198754" stroke-width="0"/></g><g transform="matrix(-.887485 0 0 0.350273 302.892456-21.537171)"><ellipse rx="44.766575" ry="43.167768" transform="translate(122.820294 125.026598)" fill="#198754" stroke-width="0"/><ellipse rx="32.295885" ry="34.214454" transform="translate(117.704115 148.369219)" fill="#198754" stroke-width="0"/><ellipse rx="31.976125" ry="30.69708" transform="matrix(1.03 0 0 1.072915 172.383288 135.259008)" fill="#198754" stroke-width="0"/><ellipse rx="42.208485" ry="13.110211" transform="translate(171.424004 161.479429)" fill="#198754" stroke-width="0"/><ellipse rx="46.04562" ry="17.267107" transform="translate(93.40226 157.322533)" fill="#198754" stroke-width="0"/><ellipse rx="20.144958" ry="12.486701" transform="translate(84.129184 137.513299)" fill="#198754" stroke-width="0"/></g><g transform="matrix(1.661539 0 0 1.526981-60.660197-45.667653)"><ellipse rx="44.766575" ry="43.167768" transform="translate(122.820294 125.026598)" fill="#198754" stroke-width="0"/><ellipse rx="32.295885" ry="34.214454" transform="translate(117.704115 148.369219)" fill="#198754" stroke-width="0"/><ellipse rx="31.976125" ry="30.69708" transform="matrix(1.03 0 0 1.072915 172.383288 135.259008)" fill="#198754" stroke-width="0"/><ellipse rx="42.208485" ry="13.110211" transform="translate(171.424004 161.479429)" fill="#198754" stroke-width="0"/><ellipse rx="46.04562" ry="17.267107" transform="translate(93.40226 157.322533)" fill="#198754" stroke-width="0"/><ellipse rx="20.144958" ry="12.486701" transform="translate(84.129184 137.513299)" fill="#198754" stroke-width="0"/></g></svg>
